<?xml version="1.0" encoding="utf-8"?>
<!-- Generator: Adobe Illustrator 19.0.1, SVG Export Plug-In . SVG Version: 6.00 Build 0)  -->
<svg version="1.1" id="Layer_1" xmlns="http://www.w3.org/2000/svg" xmlns:xlink="http://www.w3.org/1999/xlink" x="0px" y="0px"
	 viewBox="0 0 500 300" style="enable-background:new 0 0 500 300;" xml:space="preserve">
<style type="text/css">
	.st0{fill:#555B6E;}
	.st1{fill:#8AB1AE;}
	.st2{fill:#BFE4DC;}
</style>
<g>
	<path class="st0" d="M146.8,235.7c-1.5,1-3.5,1.2-5.5,1.2c-4.5,0-7.6-2.3-7.6-10.1s3.1-10.1,7.6-10.1c2,0,3.9,0.2,5.5,1.2l-0.9,1.8
		c-1.4-0.8-2.9-1.1-4.5-1.1c-3.4,0-5.6,1.3-5.6,8.1c0,6.8,2.2,8.1,5.6,8.1c1.6,0,3.1-0.3,4.5-1.1L146.8,235.7z"/>
	<path class="st0" d="M148.6,229.5c0-5.1,1.8-7.5,6.2-7.5c4.5,0,6.2,2.4,6.2,7.5c0,5.1-1.8,7.5-6.2,7.5
		C150.4,237,148.6,234.6,148.6,229.5z M159,229.5c0-3.6-0.6-5.7-4.2-5.7s-4.2,2.2-4.2,5.7c0,3.6,0.6,5.7,4.2,5.7
		S159,233.1,159,229.5z"/>
	<path class="st0" d="M173.7,236.7v-7.8c0-3.1-0.2-5.1-3.2-5.1c-2.1,0-3.1,1.1-4,2.9v10.1h-2.1v-9.1c0-1.7-0.1-3.4-0.5-5l1.7-0.4
		c0.2,0.7,0.4,1.4,0.6,2.1c0.9-1.5,2.3-2.3,4.7-2.3c4.1,0,4.8,3.1,4.8,6.4v8.2H173.7z"/>
	<path class="st0" d="M183.8,235.2c1.9,0,3-0.5,3-2.2c0-1.6-1-1.9-3.2-2.5c-2.4-0.7-4.7-1.4-4.7-4.6c0-2.7,2.1-3.9,4.7-3.9
		c1.6,0,3.1,0.2,4.4,0.9l-0.7,1.6c-1-0.5-2.2-0.8-3.5-0.8c-1.6,0-2.9,0.3-2.9,2.2c0,1.6,1.4,2,3.2,2.5c2.2,0.6,4.6,1.2,4.6,4.2
		c0,3.1-1.9,4.2-4.9,4.2c-2.1,0-3.9-0.3-5.3-1.2l0.7-1.6C180.5,234.9,182.1,235.2,183.8,235.2z"/>
	<path class="st0" d="M201,234.7c-0.9,1.5-2.3,2.3-4.7,2.3c-4.1,0-4.8-3.1-4.8-6.4v-7.9l2.1-0.3v7.8c0,3.1,0.2,5.1,3.2,5.1
		c2.1,0,3.1-1.1,4-2.9v-9.8l2.1-0.3v9.1c0,1.7,0.1,3.4,0.5,5l-1.7,0.4C201.3,236.1,201.1,235.4,201,234.7z"/>
	<path class="st0" d="M224.6,236.7v-7.8c0-3.1-0.2-5.1-3.1-5.1c-2,0-3,1.1-3.9,2.9v10.1h-2.1v-9.4c0-2-0.5-3.6-3.1-3.6
		c-2,0-3,1.1-3.9,2.9v10.1h-2.1v-9.1c0-1.7-0.1-3.4-0.5-5l1.7-0.4c0.2,0.7,0.4,1.4,0.6,2.1c0.8-1.5,2.2-2.3,4.6-2.3
		c2.3,0,3.5,1,4.1,2.5c1-1.7,2.5-2.5,4.9-2.5c4,0,4.7,3.1,4.7,6.4v8.2H224.6z"/>
	<path class="st0" d="M236,237c-3.8,0-6.2-1.6-6.2-7.5c0-6.2,2.9-7.5,6-7.5c3.6,0,5.7,1.7,5.7,7.8v0.2l-9.6,0.8
		c0.1,3.4,1.6,4.4,4.1,4.4c1.5,0,2.7-0.3,4.1-1.1l0.8,1.6C239.4,236.7,237.8,237,236,237z M239.4,228.5c-0.1-3.6-1.4-4.8-3.7-4.8
		c-2.4,0-3.9,1.3-3.9,5.2v0.3L239.4,228.5z"/>
	<path class="st0" d="M244.7,236.7v-9.1c0-1.7-0.1-3.4-0.5-5l1.7-0.4c0.3,0.8,0.5,1.6,0.7,2.5c0.8-1.6,2.1-2.5,4.3-2.6l0.3,2.2
		c-2.3,0-3.6,1-4.4,3.1v9.4H244.7z"/>
	<path class="st0" d="M272,235.7c-1.5,1-3.5,1.2-5.5,1.2c-4.5,0-7.6-2.3-7.6-10.1s3.1-10.1,7.6-10.1c2,0,3.9,0.2,5.5,1.2l-0.9,1.8
		c-1.4-0.8-2.9-1.1-4.5-1.1c-3.4,0-5.6,1.3-5.6,8.1c0,6.8,2.2,8.1,5.6,8.1c1.6,0,3.1-0.3,4.5-1.1L272,235.7z"/>
	<path class="st0" d="M273.8,229.5c0-5.1,1.8-7.5,6.2-7.5c4.5,0,6.2,2.4,6.2,7.5c0,5.1-1.8,7.5-6.2,7.5
		C275.6,237,273.8,234.6,273.8,229.5z M284.2,229.5c0-3.6-0.6-5.7-4.2-5.7s-4.2,2.2-4.2,5.7c0,3.6,0.6,5.7,4.2,5.7
		S284.2,233.1,284.2,229.5z"/>
	<path class="st0" d="M298.8,236.7v-7.8c0-3.1-0.2-5.1-3.2-5.1c-2.1,0-3.1,1.1-4,2.9v10.1h-2.1v-9.1c0-1.7-0.1-3.4-0.5-5l1.7-0.4
		c0.2,0.7,0.4,1.4,0.6,2.1c0.9-1.5,2.3-2.3,4.7-2.3c4.1,0,4.8,3.1,4.8,6.4v8.2H298.8z"/>
	<path class="st0" d="M305.6,229.8v-5.7h-2.4v-1.8h2.4V218l2.1-0.3v4.6h3.2l-0.2,1.8h-3v6.3c0,2.4,0,3.8,1.8,5.5l-1.4,1.2
		C305.8,235.2,305.6,232.9,305.6,229.8z"/>
	<path class="st0" d="M313.2,236.7v-9.1c0-1.7-0.1-3.4-0.5-5l1.7-0.4c0.3,0.8,0.5,1.6,0.7,2.5c0.8-1.6,2.1-2.5,4.3-2.6l0.3,2.2
		c-2.3,0-3.6,1-4.4,3.1v9.4H313.2z"/>
	<path class="st0" d="M330.6,234.7c-0.9,1.5-2.3,2.3-4.7,2.3c-3.3,0-4.9-1.1-4.9-4.2c0-2.8,2.2-4.2,9.3-4.5V228
		c0-3.2-1.6-4.1-3.6-4.1c-1.4,0-2.7,0.3-4,0.9l-0.7-1.7c1.4-0.8,3-1.1,4.7-1.1c3.1,0,5.7,1.5,5.7,5.7v3.7c0,1.7,0.1,3.4,0.5,5
		l-1.7,0.4C331,236.1,330.8,235.4,330.6,234.7z M330.4,230c-4.8,0.2-7.2,0.9-7.2,2.8c0,1.7,0.6,2.5,3.2,2.5c2.1,0,3.1-1.1,4-2.9V230
		z"/>
	<path class="st0" d="M341.8,237c-4.2,0-6.1-2.3-6.1-7.5s1.9-7.5,6.1-7.5c1.5,0,2.7,0.2,3.8,0.9l-0.8,1.6c-1-0.5-2-0.7-3.1-0.7
		c-2.9,0-4,1.4-4,5.7s1.1,5.7,4,5.7c1,0,2.1-0.2,3.1-0.7l0.8,1.6C344.5,236.7,343.3,237,341.8,237z"/>
	<path class="st0" d="M349.6,229.8v-5.7h-2.4v-1.8h2.4V218l2.1-0.3v4.6h3.2l-0.2,1.8h-3v6.3c0,2.4,0,3.8,1.8,5.5l-1.4,1.2
		C349.8,235.2,349.6,232.9,349.6,229.8z"/>
	<path class="st0" d="M361.6,235.2c1.9,0,3-0.5,3-2.2c0-1.6-1-1.9-3.2-2.5c-2.4-0.7-4.7-1.4-4.7-4.6c0-2.7,2.1-3.9,4.7-3.9
		c1.6,0,3.1,0.2,4.4,0.9l-0.7,1.6c-1-0.5-2.2-0.8-3.5-0.8c-1.6,0-2.9,0.3-2.9,2.2c0,1.6,1.4,2,3.2,2.5c2.2,0.6,4.6,1.2,4.6,4.2
		c0,3.1-1.9,4.2-4.9,4.2c-2.1,0-3.9-0.3-5.3-1.2l0.7-1.6C358.3,234.9,359.9,235.2,361.6,235.2z"/>
</g>
<g>
	<g>
		<path class="st0" d="M159.7,100.3c0-2.8,1.9-6.1,4.3-7.5l46.7-27c2.4-1.4,6.3-1.4,8.7,0l46.7,27c2.4,1.4,4.3,4.8,4.3,7.5v53.9
			c0,2.8-1.9,6.1-4.3,7.5l-46.7,27c-2.4,1.4-6.3,1.4-8.7,0l-46.7-27c-2.4-1.4-4.3-4.8-4.3-7.5V100.3z"/>
	</g>
	<g>
		<path class="st1" d="M229,100.3c0-2.8,1.9-6.1,4.3-7.5l46.7-27c2.4-1.4,6.3-1.4,8.7,0l46.7,27c2.4,1.4,4.3,4.8,4.3,7.5v53.9
			c0,2.8-1.9,6.1-4.3,7.5l-46.7,27c-2.4,1.4-6.3,1.4-8.7,0l-46.7-27c-2.4-1.4-4.3-4.8-4.3-7.5V100.3z"/>
	</g>
	<g>
		<g>
			<path class="st2" d="M229,100.3v53.9c0,2.8,1.9,6.1,4.3,7.5l16.4,9.4l16.4-9.4c2.4-1.4,4.3-4.8,4.3-7.5v-53.9
				c0-2.8-1.9-6.1-4.3-7.5l-16.4-9.4l-16.4,9.4C231,94.2,229,97.6,229,100.3z"/>
		</g>
	</g>
</g>
</svg>
